<?xml version="1.0" encoding="utf-8"?>
<!-- Generator: Adobe Illustrator 25.0.1, SVG Export Plug-In . SVG Version: 6.00 Build 0)  -->
<svg version="1.1" id="Layer_1" xmlns="http://www.w3.org/2000/svg" xmlns:xlink="http://www.w3.org/1999/xlink" x="0px" y="0px"
	 viewBox="0 0 3500 1064" style="enable-background:new 0 0 3500 1064;" xml:space="preserve">
<style type="text/css">
	.st0{fill:#FFFFFF;}
	.st1{fill:#FEDC00;}
	.st2{fill:#F47A20;}
	.st3{fill:#7C7CBB;}
	.st4{font-family:'Jost-Bold';}
	.st5{font-size:296.0111px;}
</style>
<g>
	<g>
		<g>
			<path class="st0" d="M450.67,1057.69v-185.9l295.92-182.1v-182.1l155.55-102.43v383.18L450.67,1057.69z M450.67,1057.69"/>
			<path class="st0" d="M446.88,541.73v159.34L257.19,484.82l356.62-227.63l-136.58-83.46V3l421.12,246.6L446.88,541.73z
				 M446.88,541.73"/>
			<path class="st1" d="M3,242.01L477.23,3v174.52L158.55,336.86v364.21l292.13,170.72v185.9L3,788.33V242.01z M3,242.01"/>
			<path class="st2" d="M3,242.01L477.23,3L101.64,291.33L3,788.33V242.01z M3,242.01"/>
			<path class="st3" d="M746.59,689.69l155.55-75.88v174.52l-246.6,147.96L746.59,689.69z M746.59,689.69"/>
			<path class="st2" d="M518.96,708.65V579.66l79.67,41.73L518.96,708.65z M518.96,708.65"/>
			<path class="st0" d="M1228.05,940.32l-29.92-82.08h-13.23l35.93,95.2h14.35l35.91-95.2h-13.11L1228.05,940.32z M1284.72,953.44
				h12.41V878.6h-12.41V953.44z M1291.13,866.46c4.5,0,8.17-3.71,8.17-8.5c0-4.78-3.67-8.45-8.17-8.45c-4.79,0-8.46,3.67-8.46,8.45
				C1282.67,862.75,1286.34,866.46,1291.13,866.46L1291.13,866.46z M1372.14,933.09c-0.56-26.75-43.99-17.07-43.99-34.81
				c0-6.01,5.45-10.39,14.62-10.39c9.97,0,15.69,5.45,16.25,12.96h12.44c-0.83-14.59-11.78-23.48-28.3-23.48
				c-16.63,0-27.46,9.41-27.46,20.91c0,27.86,44.26,18.14,44.26,34.81c0,6.17-5.46,11.07-15.3,11.07
				c-10.51,0-16.92-5.45-17.62-12.69h-12.85c0.83,13.64,13.12,23.2,30.62,23.2C1361.35,954.67,1372.14,945.38,1372.14,933.09
				L1372.14,933.09z M1389.69,953.44h12.41V878.6h-12.41V953.44z M1396.09,866.46c4.5,0,8.22-3.71,8.22-8.5
				c0-4.78-3.71-8.45-8.22-8.45c-4.79,0-8.46,3.67-8.46,8.45C1387.63,862.75,1391.3,866.46,1396.09,866.46L1396.09,866.46z
				 M1494.29,915.9c0-23.63-16.52-38.54-37.82-38.54c-21.18,0-37.83,14.9-37.83,38.54c0,23.75,16.13,38.77,37.27,38.77
				C1477.22,954.67,1494.29,939.65,1494.29,915.9L1494.29,915.9z M1431.34,915.9c0-18.85,11.9-27.74,25.02-27.74
				c12.84,0,25.25,8.89,25.25,27.74c0,18.97-12.69,27.86-25.69,27.86C1442.96,943.76,1431.34,934.87,1431.34,915.9L1431.34,915.9z
				 M1565.43,953.44h12.29v-44.1c0-21.46-13.28-32.09-30.58-32.09c-10.12,0-19.13,4.23-24.07,12.01V878.6h-12.41v74.84h12.41v-41.38
				c0-16.13,8.73-24.03,21.46-24.03c12.57,0,20.9,7.79,20.9,23.08V953.44z M1610.16,945.78c0-4.74-3.67-8.46-8.18-8.46
				c-4.78,0-8.49,3.71-8.49,8.46c0,4.79,3.71,8.5,8.49,8.5C1606.49,954.27,1610.16,950.56,1610.16,945.78L1610.16,945.78z
				 M1677.9,858.12h-51.21v95.32h51.21v-10.24h-38.77v-32.8h34.66v-10.24h-34.66v-31.81h38.77V858.12z M1735.75,953.44h14.07
				l-24.15-37.82l24.03-37.03h-12.96l-16.96,27.74l-17.75-27.74h-14.07l24.19,37.7l-24.19,37.15h12.97l17.07-27.86L1735.75,953.44z
				 M1793.89,887.89c12.85,0,23.75,8.05,23.63,22.68h-47.27C1771.64,895.94,1781.72,887.89,1793.89,887.89L1793.89,887.89z
				 M1828.86,930.37h-13.39c-2.73,8.06-9.84,13.79-21.02,13.79c-12.73,0-23.36-8.34-24.3-23.47h59.79c0.27-2.61,0.44-4.79,0.44-7.55
				c0-20.48-14.23-35.77-35.93-35.77c-21.85,0-37.03,14.9-37.03,38.54c0,23.75,15.72,38.77,37.03,38.77
				C1813.02,954.67,1825.03,944.04,1828.86,930.37L1828.86,930.37z M1842.1,915.9c0,23.75,15.18,38.77,36.47,38.77
				c18.57,0,30.75-10.39,34.54-25.25h-13.35c-2.72,9.41-10.12,14.74-21.18,14.74c-13.67,0-23.74-9.68-23.74-28.26
				c0-18.33,10.08-28.01,23.74-28.01c11.07,0,18.57,5.73,21.18,14.74h13.35c-3.79-15.69-15.96-25.26-34.54-25.26
				C1857.28,877.36,1842.1,892.39,1842.1,915.9L1842.1,915.9z M1996.1,878.6h-12.44v41.09c0,16.13-8.58,24.07-21.42,24.07
				c-12.57,0-20.91-7.79-20.91-22.97v-42.2h-12.28v43.83c0,21.46,13.52,32.12,30.7,32.12c10,0,19.12-4.38,23.91-12.17v11.07h12.44
				V878.6z M2019.82,932.98c0,15.01,7.51,20.47,20.75,20.47h11.22v-10.51h-9.17c-7.63,0-10.39-2.61-10.39-9.95v-44.15h19.56V878.6
				h-19.56v-18.86h-12.41v18.86h-9.68v10.23h9.68V932.98z M2066.85,953.44h12.4V878.6h-12.4V953.44z M2073.24,866.46
				c4.51,0,8.18-3.71,8.18-8.5c0-4.78-3.67-8.45-8.18-8.45c-4.78,0-8.45,3.67-8.45,8.45
				C2064.8,862.75,2068.47,866.46,2073.24,866.46L2073.24,866.46z M2171.45,915.9c0-23.63-16.51-38.54-37.82-38.54
				c-21.18,0-37.82,14.9-37.82,38.54c0,23.75,16.09,38.77,37.27,38.77C2154.38,954.67,2171.45,939.65,2171.45,915.9L2171.45,915.9z
				 M2108.5,915.9c0-18.85,11.9-27.74,24.98-27.74c12.84,0,25.29,8.89,25.29,27.74c0,18.97-12.73,27.86-25.69,27.86
				C2120.12,943.76,2108.5,934.87,2108.5,915.9L2108.5,915.9z M2242.59,953.44h12.29v-44.1c0-21.46-13.28-32.09-30.59-32.09
				c-10.12,0-19.12,4.23-24.07,12.01V878.6h-12.4v74.84h12.4v-41.38c0-16.13,8.77-24.03,21.46-24.03c12.58,0,20.91,7.79,20.91,23.08
				V953.44z M2287.33,945.78c0-4.74-3.68-8.46-8.18-8.46c-4.79,0-8.5,3.71-8.5,8.46c0,4.79,3.71,8.5,8.5,8.5
				C2283.65,954.27,2287.33,950.56,2287.33,945.78L2287.33,945.78z M2394.82,905.78c0-28.53-20.91-48.61-47.82-48.61
				c-26.75,0-47.78,20.08-47.78,48.61c0,28.53,21.03,48.61,47.78,48.61C2373.91,954.39,2394.82,934.31,2394.82,905.78
				L2394.82,905.78z M2311.9,905.78c0-23.36,15.02-37.82,35.1-37.82c20.07,0,35.1,14.46,35.1,37.82c0,23.2-15.02,37.82-35.1,37.82
				C2326.93,943.6,2311.9,928.98,2311.9,905.78L2311.9,905.78z M2477.57,878.6h-12.4v41.09c0,16.13-8.62,24.07-21.46,24.07
				c-12.58,0-20.87-7.79-20.87-22.97v-42.2h-12.29v43.83c0,21.46,13.52,32.12,30.7,32.12c9.97,0,19.13-4.38,23.92-12.17v11.07h12.4
				V878.6z M2501.32,932.98c0,15.01,7.51,20.47,20.75,20.47h11.18v-10.51h-9.13c-7.67,0-10.39-2.61-10.39-9.95v-44.15h19.52V878.6
				h-19.52v-18.86h-12.41v18.86h-9.72v10.23h9.72V932.98z M2543.68,915.9c0,23.75,15.15,38.77,36.48,38.77
				c18.57,0,30.7-10.39,34.54-25.25h-13.4c-2.73,9.41-10.08,14.74-21.14,14.74c-13.68,0-23.8-9.68-23.8-28.26
				c0-18.33,10.12-28.01,23.8-28.01c11.07,0,18.57,5.73,21.14,14.74h13.4c-3.83-15.69-15.96-25.26-34.54-25.26
				C2558.83,877.36,2543.68,892.39,2543.68,915.9L2543.68,915.9z M2702.31,915.9c0-23.63-16.52-38.54-37.86-38.54
				c-21.14,0-37.82,14.9-37.82,38.54c0,23.75,16.12,38.77,37.3,38.77C2685.25,954.67,2702.31,939.65,2702.31,915.9L2702.31,915.9z
				 M2639.36,915.9c0-18.85,11.86-27.74,24.98-27.74c12.85,0,25.25,8.89,25.25,27.74c0,18.97-12.69,27.86-25.65,27.86
				C2650.94,943.76,2639.36,934.87,2639.36,915.9L2639.36,915.9z M2826.68,953.44h12.29v-44.1c0-21.46-13.24-32.09-30.31-32.09
				c-11.5,0-22.14,5.85-26.52,16.63c-4.91-11.18-15.14-16.63-27.43-16.63c-9.84,0-18.74,4.23-23.63,12.13V878.6h-12.45v74.84h12.45
				v-41.26c0-16.13,8.58-24.15,21.14-24.15c12.29,0,20.51,7.79,20.51,23.08v42.33h12.29v-41.26c0-16.13,8.58-24.15,21.14-24.15
				c12.29,0,20.51,7.79,20.51,23.08V953.44z M2891.18,887.89c12.85,0,23.75,8.05,23.63,22.68h-47.27
				C2868.93,895.94,2879.01,887.89,2891.18,887.89L2891.18,887.89z M2926.15,930.37h-13.4c-2.73,8.06-9.84,13.79-21.02,13.79
				c-12.73,0-23.36-8.34-24.31-23.47h59.8c0.27-2.61,0.44-4.79,0.44-7.55c0-20.48-14.23-35.77-35.92-35.77
				c-21.85,0-37.03,14.9-37.03,38.54c0,23.75,15.72,38.77,37.03,38.77C2910.31,954.67,2922.32,944.04,2926.15,930.37L2926.15,930.37
				z M2926.15,930.37"/>
			<g>
				<path class="st0" d="M2953.48,187.28c-12.82,0-25.34,3.81-36,10.93c-10.62,7.12-18.96,17.2-23.85,29.04
					c-4.89,11.84-6.18,24.86-3.67,37.45c2.5,12.55,8.66,24.09,17.7,33.16c9.08,9.04,20.61,15.21,33.16,17.7
					c12.58,2.5,25.61,1.22,37.45-3.67c11.84-4.9,21.93-13.23,29.04-23.85c7.12-10.66,10.93-23.18,10.93-36
					c0-17.17-6.81-33.66-18.96-45.82C2987.14,194.1,2970.65,187.28,2953.48,187.28L2953.48,187.28z M2953.48,303.87
					c-10.25,0-20.28-3.04-28.78-8.74c-8.53-5.7-15.18-13.79-19.09-23.24c-3.91-9.48-4.96-19.91-2.94-29.96
					c2-10.05,6.92-19.26,14.17-26.51c7.25-7.25,16.46-12.18,26.51-14.17c10.05-2.02,20.48-0.98,29.96,2.94
					c9.45,3.91,17.54,10.56,23.24,19.1c5.7,8.5,8.74,18.52,8.74,28.78c0,13.73-5.47,26.92-15.18,36.64
					C2980.4,298.41,2967.21,303.87,2953.48,303.87L2953.48,303.87z M2953.48,303.87"/>
				<path class="st0" d="M2979.39,239.1c0-5.16-2.06-10.09-5.7-13.73c-3.64-3.64-8.57-5.7-13.73-5.7h-32.39v64.77h12.95v-25.91h9.45
					l17.31,25.91h15.55l-17.81-26.69c4.08-1.11,7.72-3.54,10.32-6.92C2977.93,247.5,2979.35,243.35,2979.39,239.1L2979.39,239.1z
					 M2959.95,245.58h-19.43v-12.95h19.43c1.72,0,3.38,0.67,4.59,1.89c1.22,1.21,1.89,2.87,1.89,4.59s-0.67,3.38-1.89,4.59
					C2963.33,244.9,2961.67,245.58,2959.95,245.58L2959.95,245.58z M2959.95,245.58"/>
			</g>
		</g>
		<text transform="matrix(1 0 0 1 1149.6094 469.7109)" class="st0 st4 st5">EASEHAWK</text>
		<text transform="matrix(1 0 0 1 1149.6133 769.2031)" class="st0 st4 st5">TECHNOLOGIES</text>
	</g>
	<g>
		<polygon class="st2" points="3078.39,469.71 2896.72,469.71 2855.07,419.07 3039.43,419.07 		"/>
		<polygon class="st1" points="3111.02,469.71 3245.23,469.71 3288.02,419.07 3072.37,419.07 		"/>
		<polygon class="st3" points="3272.77,469.71 3447.66,469.71 3490.46,419.07 3313.99,419.07 		"/>
	</g>
</g>
</svg>
